<svg xmlns="http://www.w3.org/2000/svg" xmlns:xlink="http://www.w3.org/1999/xlink" width="1920" zoomAndPan="magnify" viewBox="0 0 1440 809.999993" height="1080" preserveAspectRatio="xMidYMid meet" version="1.0"><defs><g/></defs><g fill="#ffcc00" fill-opacity="1"><g transform="translate(28.019536, 498.559711)"><g><path d="M 26.140625 1.8125 C 12.046875 1.8125 2.691406 -3.144531 -1.921875 -13.0625 C -6.546875 -22.988281 -6.507812 -38.03125 -1.8125 -58.1875 L 17.5 -142.28125 C 21.75 -160.3125 28.945312 -173.945312 39.09375 -183.1875 C 49.25 -192.425781 62.28125 -197.046875 78.1875 -197.046875 C 91.070312 -197.046875 100.46875 -194.46875 106.375 -189.3125 C 112.28125 -184.164062 115.460938 -176.664062 115.921875 -166.8125 C 116.378906 -156.96875 114.863281 -144.320312 111.375 -128.875 L 73.1875 -128.875 L 77.28125 -146.375 C 78.34375 -151.070312 78.53125 -154.707031 77.84375 -157.28125 C 77.164062 -159.851562 75.160156 -161.140625 71.828125 -161.140625 C 64.398438 -161.140625 59.550781 -156.289062 57.28125 -146.59375 L 35.46875 -52.046875 C 34.101562 -46.140625 33.796875 -41.671875 34.546875 -38.640625 C 35.304688 -35.609375 37.582031 -34.09375 41.375 -34.09375 C 45.15625 -34.09375 48.179688 -35.609375 50.453125 -38.640625 C 52.734375 -41.671875 54.554688 -46.140625 55.921875 -52.046875 L 62.28125 -80 L 51.828125 -80 L 59.5625 -113.640625 L 107.28125 -113.640625 L 81.140625 0 L 65.46875 0 L 62.515625 -16.359375 C 52.816406 -4.242188 40.691406 1.8125 26.140625 1.8125 Z M 26.140625 1.8125 "/></g></g></g><g fill="#ffcc00" fill-opacity="1"><g transform="translate(138.253772, 498.559711)"><g><path d="M -13.625 0 L 31.375 -195.234375 L 109.5625 -195.234375 L 100.921875 -157.5 L 62.515625 -157.5 L 53.640625 -119.546875 L 90.46875 -119.546875 L 82.0625 -82.734375 L 45.234375 -82.734375 L 34.78125 -37.953125 L 75.6875 -37.953125 L 67.0625 0 Z M -13.625 0 "/></g></g></g><g fill="#ffcc00" fill-opacity="1"><g transform="translate(231.896022, 498.559711)"><g><path d="M 32.28125 1.8125 C 14.550781 1.8125 2.769531 -2.578125 -3.0625 -11.359375 C -8.894531 -20.148438 -9.539062 -34.316406 -5 -53.859375 L -0.671875 -72.953125 L 37.734375 -72.953125 L 32.046875 -48.640625 C 29.773438 -38.941406 31.75 -34.09375 37.96875 -34.09375 C 41.445312 -34.09375 44.132812 -35.113281 46.03125 -37.15625 C 47.925781 -39.207031 49.40625 -42.65625 50.46875 -47.5 C 51.976562 -53.863281 52.429688 -59.128906 51.828125 -63.296875 C 51.222656 -67.460938 50.085938 -70.945312 48.421875 -73.75 C 46.753906 -76.550781 43.570312 -80.910156 38.875 -86.828125 L 25.921875 -103.640625 C 15.921875 -116.367188 12.660156 -130.460938 16.140625 -145.921875 C 19.929688 -162.585938 26.675781 -175.273438 36.375 -183.984375 C 46.070312 -192.691406 58.269531 -197.046875 72.96875 -197.046875 C 90.539062 -197.046875 102.128906 -192.382812 107.734375 -183.0625 C 113.335938 -173.75 113.796875 -159.171875 109.109375 -139.328125 L 69.328125 -139.328125 L 72.28125 -152.734375 C 72.882812 -155.304688 72.65625 -157.347656 71.59375 -158.859375 C 70.539062 -160.378906 68.722656 -161.140625 66.140625 -161.140625 C 63.109375 -161.140625 60.609375 -160.304688 58.640625 -158.640625 C 56.671875 -156.972656 55.382812 -154.703125 54.78125 -151.828125 C 53.269531 -145.460938 55.390625 -138.867188 61.140625 -132.046875 L 78.875 -110.234375 C 82.96875 -105.078125 86.222656 -100.1875 88.640625 -95.5625 C 91.066406 -90.945312 92.617188 -85.492188 93.296875 -79.203125 C 93.984375 -72.921875 93.34375 -65.460938 91.375 -56.828125 C 86.832031 -37.578125 79.898438 -22.988281 70.578125 -13.0625 C 61.253906 -3.144531 48.488281 1.8125 32.28125 1.8125 Z M 32.28125 1.8125 "/></g></g></g><g fill="#ffcc00" fill-opacity="1"><g transform="translate(336.675375, 498.559711)"><g><path d="M 32.28125 1.8125 C 14.550781 1.8125 2.769531 -2.578125 -3.0625 -11.359375 C -8.894531 -20.148438 -9.539062 -34.316406 -5 -53.859375 L -0.671875 -72.953125 L 37.734375 -72.953125 L 32.046875 -48.640625 C 29.773438 -38.941406 31.75 -34.09375 37.96875 -34.09375 C 41.445312 -34.09375 44.132812 -35.113281 46.03125 -37.15625 C 47.925781 -39.207031 49.40625 -42.65625 50.46875 -47.5 C 51.976562 -53.863281 52.429688 -59.128906 51.828125 -63.296875 C 51.222656 -67.460938 50.085938 -70.945312 48.421875 -73.75 C 46.753906 -76.550781 43.570312 -80.910156 38.875 -86.828125 L 25.921875 -103.640625 C 15.921875 -116.367188 12.660156 -130.460938 16.140625 -145.921875 C 19.929688 -162.585938 26.675781 -175.273438 36.375 -183.984375 C 46.070312 -192.691406 58.269531 -197.046875 72.96875 -197.046875 C 90.539062 -197.046875 102.128906 -192.382812 107.734375 -183.0625 C 113.335938 -173.75 113.796875 -159.171875 109.109375 -139.328125 L 69.328125 -139.328125 L 72.28125 -152.734375 C 72.882812 -155.304688 72.65625 -157.347656 71.59375 -158.859375 C 70.539062 -160.378906 68.722656 -161.140625 66.140625 -161.140625 C 63.109375 -161.140625 60.609375 -160.304688 58.640625 -158.640625 C 56.671875 -156.972656 55.382812 -154.703125 54.78125 -151.828125 C 53.269531 -145.460938 55.390625 -138.867188 61.140625 -132.046875 L 78.875 -110.234375 C 82.96875 -105.078125 86.222656 -100.1875 88.640625 -95.5625 C 91.066406 -90.945312 92.617188 -85.492188 93.296875 -79.203125 C 93.984375 -72.921875 93.34375 -65.460938 91.375 -56.828125 C 86.832031 -37.578125 79.898438 -22.988281 70.578125 -13.0625 C 61.253906 -3.144531 48.488281 1.8125 32.28125 1.8125 Z M 32.28125 1.8125 "/></g></g></g><g fill="#ffcc00" fill-opacity="1"><g transform="translate(441.454728, 498.559711)"><g><path d="M 32.515625 1.8125 C 16.753906 1.8125 5.882812 -2.992188 -0.09375 -12.609375 C -6.082031 -22.234375 -7.035156 -35.757812 -2.953125 -53.1875 L 18.421875 -146.140625 C 22.359375 -162.960938 29.398438 -175.648438 39.546875 -184.203125 C 49.703125 -192.765625 62.660156 -197.046875 78.421875 -197.046875 C 94.179688 -197.046875 105.164062 -192.765625 111.375 -184.203125 C 117.582031 -175.648438 118.71875 -162.960938 114.78125 -146.140625 L 93.421875 -53.1875 C 89.328125 -35.601562 82.085938 -22.039062 71.703125 -12.5 C 61.328125 -2.957031 48.265625 1.8125 32.515625 1.8125 Z M 40.6875 -34.09375 C 44.175781 -34.09375 46.90625 -35.609375 48.875 -38.640625 C 50.84375 -41.671875 52.429688 -45.910156 53.640625 -51.359375 L 75.6875 -146.828125 C 76.601562 -151.066406 76.832031 -154.507812 76.375 -157.15625 C 75.914062 -159.8125 73.945312 -161.140625 70.46875 -161.140625 C 63.945312 -161.140625 59.550781 -156.21875 57.28125 -146.375 L 35.234375 -51.140625 C 33.867188 -45.535156 33.523438 -41.289062 34.203125 -38.40625 C 34.890625 -35.53125 37.050781 -34.09375 40.6875 -34.09375 Z M 40.6875 -34.09375 "/></g></g></g><g fill="#ffcc00" fill-opacity="1"><g transform="translate(551.916254, 498.559711)"><g/></g></g><g fill="#ffcc00" fill-opacity="1"><g transform="translate(605.101387, 498.559711)"><g><path d="M -13.625 0 L 31.375 -195.234375 L 71.59375 -195.234375 L 67.96875 -101.828125 L 89.5625 -195.234375 L 127.28125 -195.234375 L 82.28125 0 L 44.09375 0 L 47.046875 -97.734375 L 24.546875 0 Z M -13.625 0 "/></g></g></g><g fill="#ffcc00" fill-opacity="1"><g transform="translate(718.290361, 498.559711)"><g><path d="M -18.859375 0 L 45.015625 -195.234375 L 111.140625 -195.234375 L 84.78125 0 L 47.734375 0 L 52.28125 -31.59375 L 28.640625 -31.59375 L 19.09375 0 Z M 38.875 -62.734375 L 56.59375 -62.734375 L 70.6875 -162.046875 L 68.875 -162.046875 Z M 38.875 -62.734375 "/></g></g></g><g fill="#ffcc00" fill-opacity="1"><g transform="translate(828.524563, 498.559711)"><g><path d="M 31.375 1.8125 C 17.125 1.8125 6.742188 -2.65625 0.234375 -11.59375 C -6.273438 -20.53125 -7.710938 -32.800781 -4.078125 -48.40625 L 16.59375 -138.421875 C 21.144531 -157.804688 28.421875 -172.421875 38.421875 -182.265625 C 48.421875 -192.117188 61.675781 -197.046875 78.1875 -197.046875 C 92.582031 -197.046875 103.265625 -193.109375 110.234375 -185.234375 C 117.203125 -177.359375 118.945312 -165.992188 115.46875 -151.140625 L 107.734375 -117.5 L 68.875 -117.5 L 75.6875 -146.375 C 76.90625 -151.976562 77.097656 -155.835938 76.265625 -157.953125 C 75.429688 -160.078125 73.347656 -161.140625 70.015625 -161.140625 C 66.523438 -161.140625 63.832031 -159.925781 61.9375 -157.5 C 60.039062 -155.082031 58.566406 -151.523438 57.515625 -146.828125 L 34.78125 -48.859375 C 33.71875 -43.710938 33.640625 -39.960938 34.546875 -37.609375 C 35.460938 -35.265625 37.4375 -34.09375 40.46875 -34.09375 C 46.519531 -34.09375 50.6875 -39.015625 52.96875 -48.859375 L 61.140625 -84.09375 L 100.46875 -84.09375 L 92.0625 -47.28125 C 84.476562 -14.550781 64.25 1.8125 31.375 1.8125 Z M 31.375 1.8125 "/></g></g></g><g fill="#ffcc00" fill-opacity="1"><g transform="translate(936.258688, 498.559711)"><g><path d="M -15.453125 0 L 29.546875 -195.234375 L 67.28125 -195.234375 L 22.28125 0 Z M -15.453125 0 "/></g></g></g><g fill="#ffcc00" fill-opacity="1"><g transform="translate(987.852863, 498.559711)"><g><path d="M 32.515625 1.8125 C 16.753906 1.8125 5.882812 -2.992188 -0.09375 -12.609375 C -6.082031 -22.234375 -7.035156 -35.757812 -2.953125 -53.1875 L 18.421875 -146.140625 C 22.359375 -162.960938 29.398438 -175.648438 39.546875 -184.203125 C 49.703125 -192.765625 62.660156 -197.046875 78.421875 -197.046875 C 94.179688 -197.046875 105.164062 -192.765625 111.375 -184.203125 C 117.582031 -175.648438 118.71875 -162.960938 114.78125 -146.140625 L 93.421875 -53.1875 C 89.328125 -35.601562 82.085938 -22.039062 71.703125 -12.5 C 61.328125 -2.957031 48.265625 1.8125 32.515625 1.8125 Z M 40.6875 -34.09375 C 44.175781 -34.09375 46.90625 -35.609375 48.875 -38.640625 C 50.84375 -41.671875 52.429688 -45.910156 53.640625 -51.359375 L 75.6875 -146.828125 C 76.601562 -151.066406 76.832031 -154.507812 76.375 -157.15625 C 75.914062 -159.8125 73.945312 -161.140625 70.46875 -161.140625 C 63.945312 -161.140625 59.550781 -156.21875 57.28125 -146.375 L 35.234375 -51.140625 C 33.867188 -45.535156 33.523438 -41.289062 34.203125 -38.40625 C 34.890625 -35.53125 37.050781 -34.09375 40.6875 -34.09375 Z M 40.6875 -34.09375 "/></g></g></g><g fill="#ffcc00" fill-opacity="1"><g transform="translate(1098.314343, 498.559711)"><g><path d="M -13.625 0 L 31.375 -195.234375 L 71.59375 -195.234375 L 67.96875 -101.828125 L 89.5625 -195.234375 L 127.28125 -195.234375 L 82.28125 0 L 44.09375 0 L 47.046875 -97.734375 L 24.546875 0 Z M -13.625 0 "/></g></g></g><g fill="#ffcc00" fill-opacity="1"><g transform="translate(1211.503364, 498.559711)"><g><path d="M -18.859375 0 L 45.015625 -195.234375 L 111.140625 -195.234375 L 84.78125 0 L 47.734375 0 L 52.28125 -31.59375 L 28.640625 -31.59375 L 19.09375 0 Z M 38.875 -62.734375 L 56.59375 -62.734375 L 70.6875 -162.046875 L 68.875 -162.046875 Z M 38.875 -62.734375 "/></g></g></g><g fill="#ffcc00" fill-opacity="1"><g transform="translate(1321.737611, 498.559711)"><g><path d="M -13.625 0 L 31.375 -195.234375 L 70.46875 -195.234375 L 33.1875 -33.1875 L 73.421875 -33.1875 L 65.6875 0 Z M -13.625 0 "/></g></g></g><path stroke-linecap="butt" transform="matrix(0.75, 0, 0, 0.75, 28.019536, 248.059724)" fill="none" stroke-linejoin="miter" d="M 34.848954 336.441219 C 16.057286 336.441219 3.578119 329.831844 -2.588548 316.613093 C -8.755215 303.342259 -8.70834 283.269341 -2.442715 256.389132 L 23.307286 144.295376 C 28.979162 120.227666 38.572912 102.050582 52.088538 89.769331 C 65.651039 77.435998 83.036456 71.274539 104.249999 71.274539 C 121.411458 71.274539 133.942709 74.701622 141.833334 81.555789 C 149.723959 88.415165 153.968751 98.425582 154.557293 111.597458 C 155.151043 124.71725 153.13021 141.587042 148.489584 162.201627 L 97.58854 162.201627 L 103.062499 138.821417 C 104.442707 132.561 104.666665 127.722458 103.729165 124.321417 C 102.843749 120.868291 100.177082 119.144333 95.739582 119.144333 C 85.874998 119.144333 79.411456 125.602667 76.354164 138.524542 L 47.276038 264.602674 C 45.453121 272.493299 45.031246 278.462049 46.020829 282.503716 C 47.057288 286.550591 50.088538 288.571425 55.119788 288.571425 C 60.203122 288.571425 64.244788 286.550591 67.255205 282.503716 C 70.312497 278.462049 72.755206 272.493299 74.578122 264.602674 L 83.015623 227.311005 L 69.104164 227.311005 L 79.385414 182.472461 L 143.015626 182.472461 L 108.166666 333.99851 L 87.302081 333.99851 L 83.307289 312.175593 C 70.385414 328.352677 54.234371 336.441219 34.848954 336.441219 Z M 128.776042 333.99851 L 188.781253 73.712039 L 293.031258 73.712039 L 281.562508 123.951625 L 230.286463 123.951625 L 218.526046 174.633919 L 267.578132 174.633919 L 256.406256 223.686005 L 207.276046 223.686005 L 193.369795 283.394341 L 247.895839 283.394341 L 236.354172 333.99851 Z M 314.895843 336.441219 C 291.218758 336.441219 275.510424 330.597469 267.765632 318.90476 C 259.973965 307.165176 259.109382 288.253716 265.17709 262.159965 L 270.947924 236.706839 L 322.145843 236.706839 L 314.526051 269.113091 C 311.515634 282.087049 314.156259 288.571425 322.442718 288.571425 C 327.078135 288.571425 330.65626 287.217258 333.171885 284.503716 C 335.734385 281.738091 337.708344 277.128716 339.088552 270.665174 C 341.109386 262.186007 341.703136 255.180798 340.864594 249.654756 C 340.078136 244.081839 338.572927 239.420381 336.354177 235.67038 C 334.130219 231.92038 329.890635 226.102672 323.62501 218.212046 L 306.385426 195.79017 C 293.067717 178.826628 288.729175 160.029752 293.364592 139.415167 C 298.395842 117.21725 307.375009 100.326624 320.296885 88.732873 C 333.21876 77.092248 349.494803 71.274539 369.13022 71.274539 C 392.557305 71.274539 407.994806 77.488081 415.442723 89.915165 C 422.942723 102.347457 423.557307 121.77975 417.291681 148.217251 L 364.244804 148.217251 L 368.166679 130.316209 C 369.00522 126.909958 368.708345 124.196417 367.276054 122.175583 C 365.84897 120.15475 363.432303 119.144333 360.026053 119.144333 C 355.984386 119.144333 352.63022 120.253708 349.963553 122.472458 C 347.348969 124.691208 345.651053 127.722458 344.859386 131.571417 C 342.838552 140.055792 345.671886 148.837043 353.369803 157.90996 L 376.968763 186.988086 C 382.447929 193.894337 386.786471 200.430795 389.994805 206.592254 C 393.250013 212.758921 395.317722 220.034963 396.208347 228.42038 C 397.145847 236.805797 396.281263 246.743298 393.619805 258.23809 C 387.598971 283.883925 378.375013 303.342259 365.947929 316.613093 C 353.515636 329.831844 336.50001 336.441219 314.895843 336.441219 Z M 454.598975 336.441219 C 430.927099 336.441219 415.213556 330.597469 407.473972 318.90476 C 399.677097 307.165176 398.817722 288.253716 404.880222 262.159965 L 410.651056 236.706839 L 461.854183 236.706839 L 454.229183 269.113091 C 451.223975 282.087049 453.859391 288.571425 462.14585 288.571425 C 466.786475 288.571425 470.359392 287.217258 472.875017 284.503716 C 475.442726 281.738091 477.411476 277.128716 478.796893 270.665174 C 480.817726 262.186007 481.411476 255.180798 480.572934 249.654756 C 479.781268 244.081839 478.276059 239.420381 476.057309 235.67038 C 473.838559 231.92038 469.593767 226.102672 463.33335 218.212046 L 446.093766 195.79017 C 432.776057 178.826628 428.432307 160.029752 433.072932 139.415167 C 438.104182 117.21725 447.078141 100.326624 460.000017 88.732873 C 472.927101 77.092248 489.203143 71.274539 508.833352 71.274539 C 532.260437 71.274539 547.703146 77.488081 555.151063 89.915165 C 562.645855 102.347457 563.265647 121.77975 557.000022 148.217251 L 503.953144 148.217251 L 507.869811 130.316209 C 508.708352 126.909958 508.416686 124.196417 506.984394 122.175583 C 505.552102 120.15475 503.135436 119.144333 499.734394 119.144333 C 495.687518 119.144333 492.333352 120.253708 489.671893 122.472458 C 487.05731 124.691208 485.354185 127.722458 484.567726 131.571417 C 482.541684 140.055792 485.380226 148.837043 493.072935 157.90996 L 516.677103 186.988086 C 522.151061 193.894337 526.489603 200.430795 529.697937 206.592254 C 532.953145 212.758921 535.026062 220.034963 535.911479 228.42038 C 536.848979 236.805797 535.984396 246.743298 533.322937 258.23809 C 527.307312 283.883925 518.083353 303.342259 505.651061 316.613093 C 493.223977 329.831844 476.203143 336.441219 454.598975 336.441219 Z M 594.60419 336.441219 C 573.588564 336.441219 559.088563 330.02976 551.09898 317.206843 C 543.109396 304.378717 541.848979 286.352675 547.328146 263.118299 L 575.812523 139.118292 C 581.036481 116.727666 590.411482 99.831832 603.927107 88.435998 C 617.489608 76.993289 634.776067 71.274539 655.791693 71.274539 C 676.802111 71.274539 691.453153 76.993289 699.739612 88.435998 C 708.026071 99.831832 709.531279 116.727666 704.250029 139.118292 L 675.765653 263.118299 C 670.338569 286.550591 660.697943 304.628717 646.838568 317.352676 C 633.026067 330.076635 615.614608 336.441219 594.60419 336.441219 Z M 605.479191 288.571425 C 610.114608 288.571425 613.739608 286.550591 616.354191 282.503716 C 619.020858 278.462049 621.166691 272.790174 622.791692 265.48809 L 652.166693 138.232876 C 653.348985 132.561 653.64586 127.972458 653.05211 124.46725 C 652.45836 120.920375 649.848985 119.144333 645.208359 119.144333 C 636.531276 119.144333 630.661484 125.701625 627.598983 138.821417 L 598.22919 265.784965 C 596.401065 273.279757 595.937524 278.951633 596.82294 282.800591 C 597.76044 286.64955 600.645857 288.571425 605.479191 288.571425 Z M 751.239615 333.99851 L 811.244826 73.712039 L 864.885454 73.712039 L 860.078162 198.232879 L 888.859413 73.712039 L 939.166707 73.712039 L 879.166704 333.99851 L 828.260452 333.99851 L 832.182327 203.706837 L 802.145867 333.99851 Z M 895.203164 333.99851 L 980.364626 73.712039 L 1068.557339 73.712039 L 1033.411504 333.99851 L 983.989626 333.99851 L 990.057335 291.89955 L 958.5365 291.89955 L 945.812541 333.99851 Z M 972.151084 250.39434 L 995.828169 250.39434 L 1014.619836 117.956833 L 1012.177128 117.956833 Z M 1109.140674 336.441219 C 1090.15109 336.441219 1076.317756 330.472469 1067.635464 318.534968 C 1058.953172 306.602676 1057.031297 290.248508 1061.86463 269.482882 L 1089.46359 149.477668 C 1095.531299 123.581833 1105.218799 104.071416 1118.536508 90.951623 C 1131.854217 77.831831 1149.541718 71.274539 1171.588594 71.274539 C 1190.776095 71.274539 1205.005262 76.524539 1214.276096 87.029748 C 1223.599013 97.540165 1225.942764 112.680791 1221.307347 132.462042 L 1210.947971 177.295378 L 1159.156302 177.295378 L 1168.260469 138.821417 C 1169.885469 131.3735 1170.130261 126.243292 1169.000052 123.436 C 1167.911511 120.571416 1165.125052 119.144333 1160.635469 119.144333 C 1156.000052 119.144333 1152.427135 120.769333 1149.91151 124.024542 C 1147.395885 127.232875 1145.421926 131.96725 1143.989634 138.232876 L 1113.729216 268.816215 C 1112.296925 275.722466 1112.177133 280.753716 1113.359425 283.909966 C 1114.5938 287.019341 1117.234425 288.571425 1121.276092 288.571425 C 1129.364634 288.571425 1134.916717 281.988091 1137.921926 268.816215 L 1148.875051 221.837046 L 1201.255262 221.837046 L 1190.083387 270.962049 C 1179.974011 314.613093 1152.989635 336.441219 1109.140674 336.441219 Z M 1190.343803 333.99851 L 1250.349015 73.712039 L 1300.656309 73.712039 L 1240.656306 333.99851 Z M 1323.135477 336.441219 C 1302.119851 336.441219 1287.61985 330.02976 1279.630266 317.206843 C 1271.640683 304.378717 1270.380266 286.352675 1275.854224 263.118299 L 1304.343809 139.118292 C 1309.567768 116.727666 1318.942768 99.831832 1332.458394 88.435998 C 1346.020895 76.993289 1363.307354 71.274539 1384.32298 71.274539 C 1405.333398 71.274539 1419.98444 76.993289 1428.270899 88.435998 C 1436.557357 99.831832 1438.062566 116.727666 1432.781316 139.118292 L 1404.296939 263.118299 C 1398.869856 286.550591 1389.22923 304.628717 1375.369854 317.352676 C 1361.557354 330.076635 1344.145894 336.441219 1323.135477 336.441219 Z M 1334.010477 288.571425 C 1338.645894 288.571425 1342.270894 286.550591 1344.885478 282.503716 C 1347.552145 278.462049 1349.69277 272.790174 1351.322978 265.48809 L 1380.69798 138.232876 C 1381.880271 132.561 1382.177146 127.972458 1381.583396 124.46725 C 1380.989646 120.920375 1378.375063 119.144333 1373.739646 119.144333 C 1365.057354 119.144333 1359.19277 125.701625 1356.13027 138.821417 L 1326.760477 265.784965 C 1324.932352 273.279757 1324.463602 278.951633 1325.354227 282.800591 C 1326.291727 286.64955 1329.177144 288.571425 1334.010477 288.571425 Z M 1408.859439 333.99851 L 1468.864651 73.712039 L 1522.505278 73.712039 L 1517.692778 198.232879 L 1546.47403 73.712039 L 1596.786532 73.712039 L 1536.781321 333.99851 L 1485.880277 333.99851 L 1489.802152 203.706837 L 1459.760484 333.99851 Z M 1552.822988 333.99851 L 1637.979243 73.712039 L 1726.171955 73.712039 L 1691.031329 333.99851 L 1641.609451 333.99851 L 1647.671951 291.89955 L 1616.156325 291.89955 L 1603.432366 333.99851 Z M 1629.770909 250.39434 L 1653.442785 250.39434 L 1672.239661 117.956833 L 1669.796953 117.956833 Z M 1706.755288 333.99851 L 1766.760499 73.712039 L 1818.92196 73.712039 L 1769.203208 289.753717 L 1822.843835 289.753717 L 1812.557376 333.99851 Z M 1706.755288 333.99851 " stroke="#000000" stroke-width="5.871729" stroke-opacity="1" stroke-miterlimit="4"/></svg>